<?xml version="1.0" standalone="no"?>
<!DOCTYPE svg PUBLIC "-//W3C//DTD SVG 20010904//EN"
 "http://www.w3.org/TR/2001/REC-SVG-20010904/DTD/svg10.dtd">
<svg version="1.0" xmlns="http://www.w3.org/2000/svg"
 width="468pt" height="230pt" viewBox="0 0 468 230"
 preserveAspectRatio="xMidYMid meet">
<metadata>
Created by POTRACE VERSION, written by Peter Selinger 2001-2007
</metadata>
<g transform="translate(0,230) scale(0.015600,-0.015600)"
fill="#000000" stroke="none">
<path d="M18665 14115 c-33 -7 -145 -40 -248 -75 -179 -59 -193 -65 -270 -126
-45 -35 -107 -82 -138 -103 -31 -22 -61 -52 -67 -68 -6 -15 -14 -43 -17 -62
-4 -19 -25 -53 -46 -76 -21 -23 -45 -57 -53 -76 -7 -19 -19 -59 -26 -89 -7
-30 -27 -82 -45 -115 -18 -33 -35 -72 -39 -87 -3 -15 -11 -73 -16 -130 -6 -57
-21 -148 -34 -203 -14 -55 -36 -151 -50 -213 -14 -62 -33 -166 -41 -230 -9
-64 -29 -187 -46 -272 -16 -85 -29 -169 -29 -185 0 -17 -9 -104 -21 -195 -17
-134 -20 -192 -14 -310 5 -121 2 -182 -18 -365 -14 -121 -30 -268 -36 -326 -7
-59 -23 -176 -36 -260 -14 -85 -32 -203 -41 -264 -10 -69 -25 -126 -40 -156
-13 -27 -38 -83 -55 -126 -17 -43 -43 -98 -59 -123 -16 -25 -41 -76 -55 -113
-19 -47 -45 -87 -86 -130 -31 -34 -68 -76 -81 -92 -13 -16 -34 -46 -48 -67
-14 -20 -56 -60 -95 -88 -38 -29 -86 -69 -105 -89 -25 -27 -54 -44 -104 -61
-52 -17 -83 -36 -127 -76 -31 -29 -72 -60 -91 -69 -18 -10 -51 -35 -73 -56
-24 -23 -103 -71 -195 -118 -85 -43 -180 -93 -210 -110 -30 -17 -79 -38 -108
-46 -29 -9 -87 -31 -129 -50 -42 -20 -101 -42 -132 -49 -31 -8 -90 -20 -131
-26 -41 -7 -111 -26 -154 -42 -43 -16 -99 -33 -124 -39 -24 -5 -121 -14 -216
-19 -94 -5 -229 -5 -301 -1 -89 5 -152 15 -200 30 -38 13 -83 29 -100 36 -16
8 -56 29 -87 47 -31 18 -87 63 -125 99 -37 37 -93 94 -123 127 -38 42 -60 77
-72 114 -9 29 -17 82 -18 118 0 36 -7 101 -15 145 -8 44 -18 125 -21 180 -6
88 -3 114 20 210 15 60 37 128 50 150 14 22 75 89 138 149 62 59 152 147 200
195 48 47 133 133 190 191 57 58 129 135 161 172 31 37 73 95 93 129 19 35 50
77 67 94 21 21 40 55 55 102 14 45 37 89 61 118 27 32 45 70 61 123 12 42 35
100 51 128 16 28 36 71 44 95 9 24 23 78 31 119 8 41 28 112 44 156 16 45 36
119 45 165 11 56 19 179 25 374 6 179 5 366 -1 490 -5 110 -13 292 -18 405 -6
144 -13 223 -26 267 -13 45 -30 76 -66 117 -31 34 -70 64 -104 80 -29 14 -68
26 -86 26 -17 0 -54 -12 -81 -27 -46 -25 -54 -36 -100 -128 -28 -55 -66 -145
-84 -200 -19 -54 -45 -115 -57 -135 -13 -19 -32 -50 -41 -68 -9 -18 -28 -76
-42 -129 -13 -53 -34 -109 -45 -124 -11 -16 -34 -59 -50 -96 -17 -36 -48 -92
-70 -122 -28 -41 -46 -83 -65 -156 -14 -54 -39 -122 -55 -150 -16 -28 -36 -85
-45 -125 -9 -41 -34 -113 -54 -160 -21 -47 -65 -141 -98 -210 -39 -83 -68
-162 -86 -233 -15 -60 -38 -131 -52 -159 -14 -27 -36 -99 -50 -161 -18 -84
-31 -120 -53 -147 -15 -19 -33 -44 -39 -55 -6 -12 -16 -59 -22 -105 -6 -47
-15 -101 -20 -121 -6 -19 -23 -55 -39 -80 -20 -29 -36 -77 -51 -144 -11 -55
-25 -139 -30 -186 -6 -65 -16 -101 -39 -148 -18 -34 -47 -79 -66 -100 -19 -21
-62 -50 -95 -65 -56 -25 -63 -26 -84 -13 -12 8 -28 33 -34 55 -7 21 -12 62
-12 89 0 28 6 66 14 84 8 19 23 88 34 154 12 66 29 183 39 260 16 124 18 214
17 770 -1 522 -4 651 -18 754 -9 68 -28 181 -41 250 -14 69 -36 208 -50 309
-14 101 -28 195 -31 210 -4 15 -19 51 -35 80 -16 29 -36 82 -45 119 -8 37 -22
82 -30 101 -7 19 -27 49 -43 68 -19 21 -33 53 -41 91 -7 32 -17 67 -22 78 -6
11 -29 39 -52 61 -22 23 -65 69 -95 103 -30 34 -72 73 -95 86 -23 13 -67 31
-98 39 -55 14 -64 14 -203 -14 -80 -16 -157 -36 -173 -44 -15 -8 -37 -27 -48
-43 -12 -16 -50 -46 -85 -66 -35 -21 -93 -60 -129 -87 -36 -27 -87 -65 -115
-83 -27 -19 -58 -43 -68 -54 -9 -11 -22 -46 -28 -78 -6 -33 -29 -93 -50 -134
-22 -42 -53 -98 -69 -125 -15 -27 -50 -70 -78 -95 -41 -38 -51 -55 -61 -99 -6
-29 -18 -66 -26 -82 -8 -16 -26 -45 -39 -64 -12 -19 -35 -78 -50 -131 -14 -53
-41 -127 -60 -163 -18 -37 -48 -112 -66 -167 -18 -55 -47 -134 -66 -175 -18
-41 -38 -106 -44 -144 -6 -38 -17 -81 -25 -97 -8 -15 -19 -31 -25 -34 -6 -3
-28 -33 -50 -66 -26 -38 -48 -59 -60 -59 -11 0 -26 10 -34 23 -8 12 -20 51
-25 87 -6 36 -11 97 -11 137 0 40 -7 123 -15 186 -8 63 -26 144 -39 179 -14
36 -34 119 -45 184 -11 65 -26 152 -32 193 -7 48 -23 96 -46 138 -19 36 -45
95 -59 131 -14 37 -46 102 -71 146 -25 45 -74 121 -109 171 -34 50 -71 98 -81
106 -10 9 -34 22 -53 28 -19 7 -74 15 -121 18 -55 4 -98 1 -122 -6 -24 -8 -53
-31 -80 -63 -23 -28 -67 -79 -97 -113 -30 -34 -73 -86 -94 -116 -22 -30 -52
-85 -68 -123 -16 -39 -35 -95 -43 -126 -8 -32 -26 -81 -39 -111 -13 -30 -29
-79 -35 -109 -6 -30 -16 -107 -22 -170 -7 -74 -20 -138 -35 -179 -14 -36 -36
-130 -49 -210 -14 -80 -32 -172 -40 -205 -8 -34 -21 -84 -29 -112 -8 -28 -19
-102 -26 -165 -6 -63 -18 -157 -25 -210 -8 -53 -19 -152 -24 -222 -7 -92 -18
-150 -40 -220 -22 -69 -36 -145 -51 -278 -11 -101 -31 -224 -45 -274 -13 -49
-36 -146 -50 -214 -15 -69 -35 -141 -45 -162 -11 -20 -27 -39 -36 -43 -9 -4
-28 1 -41 10 -14 8 -31 30 -38 49 -8 18 -21 82 -30 141 -9 60 -31 197 -50 304
-26 148 -49 238 -94 375 -32 99 -75 214 -95 255 -20 42 -40 105 -46 144 -6 38
-17 81 -25 95 -7 15 -21 33 -30 41 -9 7 -25 25 -35 40 -10 15 -26 60 -34 100
-11 49 -27 89 -51 124 -19 28 -44 78 -55 110 -14 41 -36 76 -71 113 -27 29
-59 73 -70 98 -11 24 -30 57 -43 72 -13 15 -33 48 -46 73 -12 25 -36 61 -53
80 -17 19 -48 62 -69 95 -22 33 -69 86 -106 119 -39 35 -97 74 -139 93 -40 18
-92 36 -116 39 -33 5 -51 2 -70 -11 -14 -9 -34 -36 -43 -61 -14 -38 -16 -66
-10 -201 5 -105 14 -182 27 -228 10 -38 19 -88 19 -110 0 -22 12 -87 26 -145
14 -58 26 -118 26 -133 -1 -16 -12 -43 -26 -61 -14 -18 -41 -41 -61 -50 -32
-16 -44 -16 -98 -6 -54 11 -67 10 -102 -4 -22 -10 -70 -24 -107 -31 -38 -8
-85 -22 -105 -31 -21 -9 -65 -27 -97 -40 -33 -13 -70 -24 -82 -24 -12 0 -27 7
-34 15 -7 8 -16 35 -21 60 -6 31 -4 61 7 102 8 32 27 83 43 113 15 30 38 89
50 130 13 41 33 94 47 117 13 22 36 83 50 135 15 51 41 125 59 163 18 39 43
106 55 150 12 44 37 107 55 140 18 33 54 123 80 200 27 77 76 192 109 255 33
63 80 156 105 206 26 50 82 144 126 209 l80 119 0 70 c0 61 -6 83 -38 156 -21
47 -46 93 -55 104 -9 10 -48 34 -86 53 -60 30 -77 35 -123 31 -32 -3 -65 -13
-80 -24 -14 -11 -45 -53 -69 -94 -25 -41 -55 -97 -68 -125 -14 -27 -41 -86
-61 -130 -20 -44 -50 -114 -65 -155 -16 -41 -44 -105 -63 -141 -19 -37 -43
-102 -52 -145 -9 -44 -21 -95 -27 -114 -6 -19 -19 -47 -29 -61 -10 -14 -30
-70 -44 -123 -13 -54 -43 -141 -64 -195 -24 -58 -47 -142 -59 -210 -17 -94
-28 -124 -62 -182 -28 -47 -50 -104 -71 -184 -16 -63 -45 -146 -64 -183 -25
-48 -40 -100 -55 -185 -12 -69 -31 -139 -45 -167 -13 -26 -38 -101 -56 -166
-17 -66 -51 -178 -75 -251 -30 -91 -47 -164 -55 -238 -11 -96 -16 -112 -47
-158 -19 -27 -45 -83 -59 -123 -14 -41 -36 -90 -49 -109 -13 -20 -30 -48 -38
-63 -8 -15 -22 -57 -31 -92 -9 -35 -38 -109 -65 -164 -26 -56 -66 -123 -88
-151 -22 -27 -67 -106 -100 -175 -33 -69 -70 -160 -81 -203 -12 -44 -28 -91
-36 -107 -8 -15 -28 -39 -44 -53 -16 -13 -51 -30 -78 -35 -26 -6 -84 -18 -129
-26 -45 -9 -99 -16 -120 -16 -21 0 -62 6 -89 14 -28 7 -62 19 -75 26 -14 7
-41 26 -60 41 -19 15 -108 68 -198 117 -89 50 -182 108 -207 129 -24 21 -104
66 -177 100 -73 34 -160 72 -193 85 -52 20 -63 29 -83 68 -21 40 -23 54 -18
125 3 44 14 110 24 147 11 37 35 91 55 120 24 34 44 82 57 132 11 44 20 87 20
97 0 9 16 47 35 84 20 37 47 108 61 158 14 51 43 147 65 213 21 67 43 162 49
210 5 49 17 124 25 167 8 43 22 133 30 200 9 67 18 208 21 312 4 142 2 217 -9
295 -9 58 -34 186 -57 284 -28 123 -50 195 -69 230 -16 28 -38 83 -50 121 -15
51 -30 80 -55 104 -25 24 -41 54 -56 102 -14 46 -33 83 -60 114 -22 26 -40 52
-40 58 0 7 -13 40 -29 73 -21 45 -41 70 -73 92 -23 16 -83 70 -133 119 -49 49
-106 100 -125 113 -19 13 -57 45 -85 71 -27 26 -68 56 -90 65 -22 9 -60 31
-85 49 -25 18 -90 54 -145 80 -54 26 -124 56 -155 67 -30 11 -102 26 -160 34
-58 9 -188 21 -289 28 -150 10 -202 10 -278 0 -51 -8 -119 -20 -151 -29 -33
-8 -102 -19 -153 -25 -52 -5 -118 -14 -148 -20 -30 -5 -96 -24 -148 -40 -51
-17 -99 -30 -106 -30 -6 0 -45 -10 -86 -22 -62 -18 -85 -31 -135 -78 -34 -31
-74 -65 -91 -77 -16 -11 -79 -40 -140 -64 -98 -39 -120 -52 -200 -124 -49 -44
-111 -97 -136 -117 -26 -21 -72 -75 -102 -120 -30 -46 -85 -143 -121 -217 -55
-110 -70 -149 -81 -220 -8 -48 -26 -114 -40 -146 -15 -34 -30 -94 -37 -143 -6
-49 -8 -191 -5 -331 4 -234 6 -252 34 -361 17 -63 36 -162 42 -220 6 -58 16
-130 22 -160 6 -30 26 -89 45 -131 25 -56 38 -107 49 -185 9 -60 20 -125 25
-144 5 -19 26 -59 46 -88 24 -37 43 -84 60 -149 13 -53 24 -119 24 -147 0 -34
-8 -64 -23 -90 -12 -22 -64 -76 -116 -121 -51 -44 -100 -94 -109 -110 -8 -17
-22 -59 -29 -95 -8 -36 -26 -83 -41 -104 -25 -36 -27 -47 -27 -135 0 -92 2
-98 33 -147 24 -36 38 -77 52 -148 11 -53 25 -107 32 -119 6 -12 24 -38 39
-57 15 -19 36 -66 48 -104 15 -51 30 -80 60 -110 22 -23 55 -62 73 -88 18 -26
59 -81 92 -123 33 -43 96 -105 145 -143 47 -38 102 -78 121 -90 20 -11 47 -33
60 -47 14 -15 50 -40 81 -55 30 -16 74 -44 97 -63 23 -20 63 -43 89 -53 27 -9
71 -28 98 -41 28 -13 68 -34 90 -48 22 -13 85 -34 140 -46 55 -11 126 -34 158
-51 33 -16 94 -36 136 -44 50 -10 101 -13 148 -9 49 4 93 1 138 -10 36 -8 89
-15 116 -15 28 0 59 -5 71 -11 11 -6 26 -26 34 -44 8 -19 14 -57 14 -84 0 -27
-14 -102 -30 -167 -17 -64 -48 -160 -69 -213 -21 -53 -43 -117 -50 -142 -7
-25 -14 -79 -15 -120 -2 -48 -10 -90 -23 -120 -12 -26 -24 -71 -28 -100 -3
-30 -13 -90 -21 -134 -7 -44 -18 -134 -23 -200 -5 -66 -19 -163 -29 -215 -14
-63 -22 -155 -26 -273 -5 -139 -2 -201 10 -283 14 -86 15 -118 6 -172 -7 -37
-24 -105 -38 -152 -22 -70 -33 -91 -66 -120 -22 -19 -54 -49 -71 -66 -18 -17
-59 -60 -92 -96 -33 -35 -78 -90 -100 -122 -22 -31 -54 -77 -72 -101 -18 -24
-44 -68 -59 -97 -15 -29 -55 -96 -90 -148 -34 -52 -79 -110 -98 -129 -22 -21
-46 -60 -61 -101 -14 -37 -39 -88 -55 -114 -16 -25 -39 -64 -49 -85 -11 -21
-41 -62 -66 -92 -25 -30 -63 -79 -82 -108 -20 -30 -63 -120 -95 -199 -43 -106
-58 -157 -58 -192 0 -27 11 -95 25 -153 13 -58 34 -130 46 -161 12 -32 45 -85
77 -124 31 -37 80 -89 107 -115 28 -27 68 -59 90 -72 22 -13 87 -35 144 -50
58 -14 170 -37 250 -51 111 -18 183 -24 296 -24 87 1 184 7 230 15 44 8 107
19 140 24 33 6 134 17 225 26 91 8 217 22 280 31 63 8 162 24 220 35 58 10
168 24 245 29 77 6 196 15 265 20 69 6 154 14 190 20 36 5 217 10 403 10 186
0 380 -4 430 -10 51 -5 155 -14 232 -20 77 -6 171 -18 209 -27 38 -8 83 -21
101 -29 17 -7 67 -22 111 -34 43 -11 119 -27 168 -35 79 -13 92 -18 130 -52
22 -21 61 -45 86 -53 30 -10 63 -33 101 -71 40 -40 64 -75 79 -116 18 -48 21
-71 16 -133 -3 -41 -17 -110 -31 -153 -14 -43 -34 -95 -45 -115 -12 -20 -32
-52 -45 -70 -13 -18 -31 -56 -41 -85 -9 -29 -27 -67 -41 -85 -13 -18 -48 -48
-76 -67 -28 -19 -59 -35 -68 -35 -9 0 -45 -31 -80 -69 -35 -38 -91 -100 -124
-137 -33 -37 -88 -85 -122 -107 -42 -26 -71 -53 -88 -83 -14 -24 -56 -75 -94
-113 -54 -55 -87 -78 -159 -113 -53 -25 -94 -51 -98 -61 -3 -10 -40 -53 -82
-95 -47 -47 -102 -90 -139 -110 -34 -18 -96 -41 -139 -52 -55 -14 -81 -26 -92
-42 -8 -13 -43 -50 -77 -83 -34 -34 -93 -77 -131 -97 -38 -20 -98 -44 -134
-53 -36 -10 -110 -39 -165 -65 -66 -32 -124 -51 -171 -59 -40 -6 -98 -19 -130
-30 -33 -11 -86 -30 -119 -44 -33 -14 -114 -35 -180 -46 -66 -12 -158 -30
-205 -40 -47 -10 -99 -25 -116 -34 -17 -9 -85 -25 -150 -36 -65 -12 -155 -27
-199 -36 -44 -8 -123 -14 -175 -15 -52 0 -147 -5 -210 -11 -63 -5 -151 -10
-196 -10 -44 0 -120 7 -170 15 -49 8 -154 25 -234 36 -80 11 -169 27 -198 36
-29 8 -85 36 -125 61 -39 26 -95 64 -123 85 -28 21 -56 49 -62 62 -6 13 -16
53 -22 88 -7 34 -18 78 -25 96 -8 18 -40 62 -72 97 -32 36 -65 65 -74 65 -8 0
-25 -10 -36 -22 -11 -13 -26 -40 -33 -61 -7 -22 -12 -105 -13 -200 l-2 -162
32 -66 c21 -43 51 -82 87 -115 30 -27 69 -63 88 -80 18 -17 45 -45 60 -62 19
-20 47 -36 85 -47 32 -9 81 -31 108 -49 28 -18 64 -40 80 -49 17 -8 93 -32
170 -53 130 -34 154 -37 340 -45 113 -4 298 -3 425 2 124 5 297 19 385 30 88
12 191 29 230 40 38 10 91 19 117 19 25 0 99 14 163 30 64 17 134 30 156 30
22 0 60 -5 85 -11 37 -10 56 -9 102 4 31 9 81 21 110 27 29 5 67 10 84 10 17
0 56 15 89 36 32 19 94 48 137 64 43 16 108 36 143 45 39 10 76 27 94 44 17
15 72 58 124 95 61 44 119 77 170 95 42 14 98 43 124 64 27 20 56 37 65 37 9
0 41 11 70 25 29 13 67 35 85 48 17 13 54 32 81 42 27 10 73 40 103 67 30 27
75 58 100 69 25 11 70 41 99 67 30 26 89 80 131 121 43 41 100 89 128 106 27
18 59 43 70 55 11 12 32 28 47 36 15 8 46 14 69 14 38 0 46 5 118 78 42 43
108 102 146 131 l70 52 6 59 c5 48 13 69 46 113 23 29 55 80 71 114 18 36 52
79 82 107 39 34 60 46 84 46 17 0 43 -8 56 -17 14 -9 57 -46 95 -82 39 -37 91
-79 117 -94 26 -15 74 -34 107 -43 34 -8 87 -27 118 -40 35 -16 90 -29 140
-34 49 -5 121 -5 173 1 50 5 105 16 123 25 18 10 46 27 62 40 17 12 63 32 103
43 50 14 86 31 118 58 25 21 76 65 113 98 37 33 87 74 113 91 25 18 71 65 102
105 30 41 71 93 90 117 19 24 42 66 52 95 9 29 28 66 41 83 13 18 33 64 43
103 11 40 36 95 55 124 19 29 39 75 44 102 5 28 15 139 22 247 10 158 10 237
0 400 -7 112 -23 286 -37 388 -14 102 -29 259 -34 350 -5 91 -14 199 -21 240
-6 43 -11 180 -10 324 1 241 2 251 27 320 14 39 34 98 44 131 10 33 23 72 29
87 5 15 22 35 37 45 18 11 47 17 87 18 53 0 61 -3 80 -28 12 -16 36 -42 52
-58 17 -17 65 -62 108 -102 43 -40 91 -94 106 -122 15 -27 44 -76 63 -108 20
-31 44 -90 53 -130 10 -39 31 -106 48 -147 22 -55 30 -92 30 -140 1 -36 -4
-139 -10 -230 -7 -107 -17 -181 -28 -210 -9 -25 -33 -97 -52 -160 -19 -63 -46
-130 -60 -149 -14 -18 -40 -63 -58 -100 -18 -36 -46 -83 -63 -103 -16 -21 -40
-64 -53 -95 -12 -32 -37 -80 -55 -108 -18 -27 -40 -79 -49 -115 -13 -49 -16
-89 -12 -160 4 -52 13 -120 21 -150 9 -30 32 -79 53 -109 23 -33 54 -63 77
-75 22 -11 62 -22 91 -24 41 -3 62 1 102 22 28 14 60 38 70 53 11 16 25 42 31
58 6 17 16 49 22 72 6 23 27 66 46 95 20 29 49 84 65 122 15 38 37 78 47 90
11 11 25 32 32 44 6 13 20 49 31 80 11 32 30 73 43 92 12 19 36 71 53 116 16
44 46 106 67 137 21 31 50 90 66 131 16 41 42 98 59 128 16 29 44 105 62 168
17 63 45 138 61 166 19 35 33 81 44 145 10 63 26 118 49 167 24 49 40 103 51
170 8 53 20 121 25 149 6 29 21 73 35 99 13 25 35 91 48 147 14 56 29 134 34
173 5 39 21 93 35 120 13 27 36 87 51 132 14 46 31 93 38 105 6 12 38 55 70
95 33 39 66 72 75 72 8 0 28 -14 43 -30 16 -18 39 -63 54 -108 14 -42 30 -99
36 -127 6 -27 16 -83 21 -125 6 -41 10 -229 9 -417 -1 -229 -6 -384 -15 -465
-8 -68 -15 -146 -15 -174 0 -28 -6 -82 -14 -120 -8 -38 -20 -128 -27 -201 -7
-72 -9 -170 -6 -218 5 -75 13 -101 54 -192 43 -96 54 -111 108 -155 33 -27 75
-55 93 -64 22 -10 45 -12 70 -8 25 5 50 20 79 50 24 24 54 67 68 95 14 27 39
85 56 127 16 42 42 95 57 117 15 22 36 60 47 85 10 25 38 74 61 110 23 36 56
94 74 130 18 35 46 82 64 103 17 22 45 64 61 96 22 40 37 57 53 59 15 2 34 -5
49 -20 14 -13 33 -39 43 -58 10 -19 37 -93 60 -165 39 -120 47 -134 91 -176
26 -25 73 -63 104 -85 51 -35 64 -39 131 -42 41 -3 96 1 121 7 26 7 81 37 125
68 60 42 90 72 127 127 27 39 56 78 66 86 9 7 30 39 45 69 16 31 47 70 68 88
28 23 46 49 62 94 16 41 50 96 100 158 42 53 91 124 110 159 25 47 43 68 71
83 21 10 49 19 63 19 14 0 31 -9 40 -22 10 -15 16 -45 16 -84 0 -35 -11 -109
-24 -166 -14 -57 -30 -141 -37 -188 -11 -78 -15 -88 -49 -122 -21 -21 -47 -38
-57 -38 -11 0 -34 -5 -52 -11 -29 -10 -40 -27 -100 -153 -57 -117 -72 -160
-90 -251 -11 -61 -32 -141 -46 -180 -13 -38 -25 -88 -25 -110 0 -22 -7 -72
-15 -110 -8 -39 -15 -106 -15 -150 0 -44 -7 -136 -15 -205 -8 -69 -27 -181
-42 -250 l-27 -125 -4 -655 c-2 -488 0 -684 10 -770 8 -76 13 -281 14 -600 1
-267 4 -515 7 -552 3 -36 17 -103 31 -148 14 -44 26 -92 26 -106 0 -17 24 -50
75 -105 41 -44 75 -84 75 -89 0 -6 51 -10 121 -10 121 0 121 0 114 23 -4 12
-15 51 -26 87 -10 37 -18 99 -18 144 -1 47 8 115 20 169 21 88 21 91 3 121
-14 23 -18 46 -15 91 2 33 3 85 2 115 -1 30 -1 100 -2 155 0 55 6 156 15 225
8 69 26 197 41 285 14 88 32 230 41 315 10 103 24 177 39 220 13 36 38 155 55
265 18 110 43 236 56 280 13 44 31 112 39 150 8 39 24 142 35 230 12 88 34
214 50 280 17 66 39 203 51 305 11 102 25 235 29 295 5 61 15 131 23 156 9 26
20 97 27 159 6 63 13 116 15 120 2 4 9 58 15 121 6 63 15 135 21 161 6 25 19
54 28 62 10 10 25 14 35 10 9 -4 23 -19 31 -35 8 -15 28 -65 44 -111 16 -46
38 -108 49 -138 11 -30 29 -85 40 -121 12 -36 36 -92 55 -125 19 -32 45 -90
57 -128 13 -40 36 -84 55 -105 17 -20 47 -65 65 -100 19 -35 54 -85 77 -112
24 -26 79 -73 123 -103 43 -31 90 -71 104 -89 14 -19 43 -41 64 -49 20 -9 68
-29 107 -44 41 -17 95 -30 130 -32 33 -2 116 6 185 17 87 15 143 31 185 52 33
16 83 44 112 62 28 17 65 39 81 49 17 9 38 28 47 42 10 15 35 70 56 123 22 54
43 124 48 158 5 33 12 104 16 157 4 57 13 110 23 130 13 24 38 44 97 75 44 23
118 61 165 84 47 23 107 57 133 75 27 18 64 36 83 40 20 4 56 4 80 0 24 -3 59
-13 77 -22 17 -10 62 -42 100 -73 37 -31 89 -70 114 -88 25 -17 62 -48 82 -67
24 -23 61 -44 107 -60 39 -13 102 -28 140 -34 38 -6 130 -10 204 -8 115 2 146
7 210 29 41 14 95 31 119 37 25 7 76 33 115 60 39 26 94 69 122 96 28 27 80
74 114 104 35 30 92 85 127 122 35 36 78 87 95 112 16 26 38 51 48 56 9 5 50
58 90 117 40 59 94 131 120 158 31 33 53 69 65 105 10 30 27 69 38 85 11 17
45 56 76 88 31 32 68 65 83 73 15 8 71 25 125 38 54 13 146 38 205 56 87 26
111 29 128 20 12 -6 28 -27 36 -45 8 -19 14 -56 14 -82 -1 -26 -7 -76 -14
-110 -7 -33 -29 -92 -48 -130 -20 -37 -40 -90 -47 -118 -6 -27 -18 -120 -26
-205 -8 -85 -21 -177 -30 -205 -9 -27 -19 -97 -22 -155 -6 -104 -5 -107 35
-225 22 -66 46 -147 53 -179 11 -50 22 -70 73 -127 37 -41 100 -94 161 -135
55 -37 114 -73 132 -81 18 -7 68 -13 113 -13 44 0 124 5 176 11 52 5 115 16
140 24 25 7 73 31 107 53 34 21 82 51 107 66 25 14 74 49 110 77 36 28 81 65
100 81 19 17 56 44 83 60 26 17 47 33 47 38 0 4 24 33 53 63 28 30 75 81 103
114 28 32 61 77 72 100 12 23 40 63 63 89 22 26 51 71 64 100 13 30 38 74 55
99 17 24 42 74 55 110 14 36 36 82 49 103 14 21 27 61 31 92 4 30 16 91 26
135 11 44 33 121 49 170 16 50 41 158 54 240 13 83 27 188 31 235 4 47 15 111
26 144 14 40 18 71 14 100 -5 29 1 74 19 146 14 58 29 143 32 190 3 47 12 110
20 140 7 30 18 102 23 160 6 61 21 135 35 175 13 39 32 122 41 185 11 72 36
174 67 270 27 85 59 179 70 208 14 36 30 57 49 67 15 8 39 15 53 15 13 0 32
-3 41 -6 8 -4 23 -20 32 -37 8 -17 20 -45 25 -61 6 -17 15 -137 21 -266 6
-129 11 -300 12 -380 1 -80 -2 -210 -7 -290 -4 -80 -13 -226 -18 -325 -6 -111
-17 -211 -29 -260 -11 -44 -29 -102 -40 -128 -12 -27 -30 -101 -42 -165 -11
-65 -25 -137 -31 -162 -6 -25 -24 -75 -39 -111 -16 -37 -40 -115 -54 -174 -14
-59 -38 -133 -54 -164 -16 -31 -48 -96 -70 -144 -22 -48 -45 -113 -51 -144 -5
-31 -10 -87 -10 -125 0 -54 6 -80 26 -121 15 -29 42 -73 60 -98 24 -33 49 -53
86 -69 41 -18 65 -21 121 -18 l70 4 60 64 c34 38 76 99 99 145 23 44 55 97 73
118 18 21 47 65 65 99 18 34 47 77 65 97 18 20 43 54 57 76 14 22 58 75 97
118 39 42 82 98 95 125 13 26 38 57 55 70 18 13 53 55 78 95 25 39 55 79 67
88 13 10 53 63 91 119 38 56 79 111 93 123 13 12 49 60 79 107 31 47 83 114
115 150 33 36 76 90 95 122 19 31 53 68 75 83 25 17 46 42 58 70 10 24 47 79
82 122 35 43 101 116 148 163 47 47 103 98 125 115 22 16 54 41 70 57 17 15
59 39 94 53 34 14 85 41 113 61 28 19 62 37 76 41 13 3 66 3 116 0 50 -3 105
-10 121 -17 17 -6 48 -28 70 -49 22 -21 54 -46 72 -56 25 -15 43 -44 87 -136
47 -98 58 -133 66 -201 5 -46 16 -274 24 -508 9 -234 20 -475 25 -536 7 -88
15 -124 39 -180 17 -39 36 -104 43 -145 6 -41 24 -105 39 -144 15 -38 47 -115
70 -170 23 -55 53 -114 66 -131 13 -17 35 -62 50 -99 15 -37 44 -87 66 -112
21 -25 48 -63 59 -85 11 -22 77 -97 147 -166 69 -70 152 -144 184 -164 32 -21
80 -60 106 -87 41 -42 59 -52 134 -75 48 -14 100 -38 117 -51 16 -14 49 -34
73 -44 24 -11 69 -24 100 -31 36 -7 80 -26 116 -51 40 -26 81 -43 128 -53 38
-8 112 -35 164 -59 52 -24 118 -49 145 -55 28 -6 93 -16 146 -21 56 -6 138
-25 200 -45 59 -19 145 -39 199 -45 52 -6 149 -19 215 -30 66 -11 158 -28 205
-39 47 -11 166 -30 265 -42 99 -11 218 -26 265 -31 47 -6 135 -15 195 -19 61
-5 146 -16 190 -25 60 -12 134 -16 295 -15 118 1 310 5 425 9 184 8 226 12
337 40 70 17 143 37 161 45 19 7 54 32 79 55 25 23 72 55 104 70 40 19 68 40
87 67 17 26 27 53 27 77 0 27 -6 39 -22 48 -13 7 -47 10 -87 6 -37 -2 -113
-21 -173 -41 -82 -28 -135 -39 -225 -46 -65 -6 -175 -13 -244 -17 -89 -4 -141
-2 -180 8 -30 7 -91 12 -136 10 -45 -1 -142 7 -215 18 -73 10 -169 22 -213 26
-44 3 -138 13 -210 21 -71 8 -199 32 -285 54 -85 21 -189 41 -230 45 -41 3
-102 11 -135 16 -33 6 -107 26 -165 44 -58 18 -157 42 -220 53 -63 12 -143 24
-178 26 -34 3 -77 13 -95 22 -17 9 -47 27 -64 41 -18 13 -52 31 -75 39 -24 8
-88 22 -143 30 -75 11 -117 23 -166 48 -36 19 -91 42 -123 51 -35 10 -74 31
-101 55 -34 30 -59 41 -119 54 -58 13 -89 27 -133 60 -32 24 -82 55 -111 70
-28 14 -80 45 -115 69 -35 23 -89 65 -122 92 -32 28 -88 78 -124 111 -36 34
-84 73 -106 86 -28 18 -49 43 -70 84 -16 32 -42 72 -56 89 -15 16 -41 59 -59
95 -18 36 -41 77 -52 92 -10 15 -36 87 -58 160 -22 74 -50 163 -64 199 -13 36
-29 101 -36 145 -6 43 -13 282 -16 529 -4 385 -8 468 -25 575 -16 96 -26 134
-46 162 -14 21 -36 67 -48 103 -13 36 -49 109 -81 163 -32 53 -82 121 -111
150 -32 32 -75 63 -110 78 -32 14 -87 40 -123 57 -64 31 -67 32 -205 32 -83
-1 -158 -6 -185 -14 -25 -7 -81 -28 -125 -48 -44 -19 -103 -46 -131 -59 -36
-17 -64 -41 -92 -78 -22 -29 -62 -73 -87 -97 -26 -24 -71 -67 -99 -96 -28 -28
-62 -57 -76 -64 -14 -7 -53 -37 -88 -68 -38 -33 -99 -106 -150 -180 -48 -68
-103 -148 -123 -177 -19 -30 -64 -82 -100 -117 -35 -34 -89 -95 -119 -136 -30
-41 -95 -115 -145 -165 -49 -50 -103 -111 -120 -136 -16 -24 -41 -50 -55 -57
-14 -7 -50 -13 -81 -13 -43 0 -60 5 -74 20 -9 10 -20 40 -23 66 -3 26 0 128 7
228 7 99 19 262 27 362 13 161 13 188 -1 253 -11 52 -13 100 -9 165 4 60 -1
170 -15 321 -12 127 -26 268 -32 314 -6 55 -19 102 -38 140 -16 31 -34 81 -41
111 -6 30 -32 97 -56 148 -39 80 -58 106 -140 188 -52 52 -101 94 -110 94 -8
0 -33 -20 -57 -44 -32 -33 -56 -48 -101 -61 -38 -10 -68 -26 -82 -43 -13 -15
-46 -53 -73 -84 -28 -32 -59 -75 -70 -96 -11 -22 -27 -69 -35 -105 -9 -37 -27
-84 -40 -104 -14 -21 -32 -69 -41 -108 -8 -38 -31 -104 -50 -145 -19 -41 -44
-112 -56 -158 -12 -45 -30 -93 -41 -107 -12 -16 -29 -25 -46 -25 -15 0 -69 20
-120 45 -52 25 -106 45 -121 45 -15 0 -52 -7 -82 -16 -30 -9 -74 -27 -99 -40
-25 -12 -101 -78 -170 -146 -69 -68 -198 -198 -286 -289 -118 -120 -172 -185
-202 -237 -22 -39 -75 -114 -116 -166 -42 -52 -99 -113 -128 -134 -29 -22 -70
-59 -90 -84 -32 -39 -50 -50 -155 -90 -111 -43 -125 -46 -249 -52 -121 -7
-132 -6 -155 13 -21 17 -24 27 -24 93 0 40 11 129 23 198 13 68 36 154 52 190
15 36 33 83 39 105 6 22 11 54 11 71 0 16 9 64 19 105 11 44 19 110 20 164 0
53 9 133 23 195 19 90 22 133 21 295 l-2 190 -56 113 c-42 84 -64 118 -88 133
-18 10 -53 26 -78 33 -26 8 -60 21 -77 30 -17 9 -40 16 -51 16 -12 0 -26 -11
-35 -29 -9 -16 -16 -48 -17 -72 0 -24 -5 -96 -11 -159 -5 -63 -14 -151 -19
-195 -6 -44 -24 -114 -40 -154 -15 -41 -40 -127 -55 -190 -18 -77 -39 -140
-64 -186 -21 -38 -45 -96 -54 -127 -12 -43 -25 -64 -48 -80 -18 -14 -43 -49
-60 -86 -16 -35 -55 -98 -88 -140 -32 -43 -70 -88 -85 -102 -15 -14 -46 -50
-68 -80 -22 -30 -58 -75 -81 -99 -22 -23 -59 -55 -81 -68 -21 -14 -73 -54
-115 -88 -41 -35 -102 -79 -135 -99 -33 -20 -79 -52 -102 -71 -23 -18 -67 -43
-98 -54 -30 -12 -88 -26 -128 -32 -47 -8 -146 -9 -287 -5 -118 3 -249 10 -290
15 -41 4 -187 4 -325 -1 -191 -7 -255 -13 -273 -24 -12 -8 -38 -39 -58 -68
-20 -30 -40 -72 -46 -93 -5 -21 -11 -129 -12 -240 -2 -171 -5 -205 -20 -228
-9 -14 -28 -31 -41 -37 -13 -6 -36 -7 -51 -4 -15 4 -39 20 -54 36 l-26 28 3
505 c2 365 7 546 18 653 8 82 22 196 31 254 8 58 25 155 36 215 11 61 26 124
33 142 7 17 20 64 29 105 8 40 20 114 25 163 5 50 15 155 22 235 11 136 10
151 -10 243 -12 54 -30 115 -40 136 -11 21 -27 43 -36 51 -9 7 -36 43 -59 79
-24 36 -59 80 -77 98 -19 17 -56 44 -84 60 -31 18 -58 44 -72 69 -13 21 -23
55 -23 75 0 24 7 42 23 57 12 11 54 29 93 40 39 11 102 34 141 51 44 19 108
36 171 46 55 8 113 20 128 25 16 6 40 22 55 36 14 13 63 38 109 55 46 16 98
42 115 58 17 15 44 32 61 38 16 7 54 19 85 27 44 12 62 24 89 57 19 24 53 50
79 62 25 11 80 43 121 70 41 28 93 65 115 82 22 18 60 42 85 55 25 12 68 43
95 69 28 26 85 73 128 105 43 32 90 75 105 95 14 20 70 80 124 133 54 54 111
121 127 150 17 29 53 75 80 102 38 38 56 65 72 113 11 34 31 78 45 98 13 20
31 49 39 66 9 17 25 75 35 130 11 55 36 150 56 212 26 82 39 140 45 217 4 58
13 256 19 440 9 276 15 360 35 478 18 100 25 181 25 270 0 70 5 170 10 222 5
52 14 142 20 200 6 58 15 172 20 254 5 82 15 177 21 210 6 33 25 114 43 180
18 67 38 150 44 186 6 36 14 81 17 100 3 20 20 60 39 89 22 34 37 71 41 104 4
29 13 79 22 112 8 33 32 89 52 125 21 36 47 89 57 119 12 34 35 71 61 97 23
24 50 55 59 69 10 15 51 49 93 77 41 28 95 57 119 65 28 8 95 13 177 13 83 0
149 -5 177 -14 25 -7 62 -25 81 -40 19 -14 67 -37 107 -51 40 -14 89 -37 109
-52 20 -14 53 -41 73 -60 21 -18 65 -46 99 -64 45 -22 97 -66 195 -162 73 -73
151 -156 173 -186 22 -30 46 -70 52 -90 6 -20 30 -61 54 -91 31 -40 50 -81 73
-155 17 -55 43 -143 58 -195 14 -52 33 -122 40 -155 8 -33 17 -121 20 -195 5
-109 2 -161 -14 -270 -12 -74 -28 -153 -36 -176 -8 -23 -19 -74 -25 -115 -6
-41 -18 -126 -25 -189 -8 -63 -33 -182 -55 -265 -22 -82 -45 -181 -51 -218 -6
-37 -18 -89 -26 -115 -9 -26 -29 -72 -44 -102 -15 -30 -37 -86 -50 -125 -12
-38 -40 -109 -61 -157 -22 -47 -50 -123 -64 -168 -13 -46 -37 -101 -54 -124
-18 -26 -38 -75 -51 -126 -12 -46 -28 -96 -36 -112 -8 -15 -33 -83 -55 -150
-22 -68 -53 -143 -69 -168 -16 -25 -38 -79 -49 -120 -11 -41 -27 -126 -36
-188 -10 -78 -23 -128 -41 -164 -25 -50 -26 -51 -15 -182 6 -72 17 -153 25
-181 8 -27 28 -96 44 -153 22 -76 38 -112 59 -135 17 -18 41 -52 54 -75 13
-24 37 -51 53 -59 16 -8 50 -34 75 -58 29 -27 100 -69 193 -115 145 -71 149
-72 250 -80 57 -4 120 -15 140 -24 20 -9 92 -21 160 -27 73 -7 212 -9 343 -6
149 4 239 10 280 21 33 8 107 28 164 43 101 26 104 27 151 10 26 -9 55 -17 65
-17 9 0 35 11 59 25 23 13 75 31 115 40 41 8 94 24 118 35 25 11 75 25 111 31
50 9 73 19 94 40 15 15 28 32 28 38 0 6 -8 19 -19 30 -13 13 -40 20 -97 25
-44 4 -115 12 -159 17 -44 6 -105 17 -135 24 -31 8 -88 19 -128 25 -39 5 -176
14 -304 20 -128 5 -278 15 -333 20 -55 6 -154 22 -220 35 -66 13 -165 29 -220
34 -55 6 -134 20 -175 31 -41 12 -111 37 -155 57 -44 19 -103 46 -132 59 -29
14 -64 39 -78 56 -14 17 -35 49 -47 72 -20 39 -20 46 -8 136 6 52 21 128 31
169 10 41 31 99 45 130 14 31 36 92 49 136 13 44 42 119 64 167 22 47 50 126
62 175 12 48 38 122 59 163 20 41 49 112 64 157 15 45 35 92 45 105 10 13 23
33 30 45 6 12 21 68 32 125 11 57 36 141 54 188 19 47 50 148 69 225 20 77 47
181 61 230 14 50 31 115 39 145 7 30 19 105 26 165 7 61 26 173 42 250 25 117
31 170 35 326 3 106 0 237 -6 305 -6 65 -18 162 -27 214 -9 52 -31 156 -49
230 -18 74 -37 156 -40 182 -4 27 -22 69 -41 100 -19 29 -34 57 -34 63 0 5 -5
27 -10 47 -6 20 -27 60 -47 89 -19 29 -47 77 -60 108 -14 30 -38 70 -54 89
-16 18 -45 64 -64 102 -21 41 -49 80 -70 96 -20 15 -42 39 -50 54 -7 14 -65
78 -128 142 -65 66 -133 126 -158 138 -24 12 -61 38 -82 58 -21 20 -70 56
-110 79 -40 23 -94 55 -121 70 -27 15 -69 43 -93 61 -38 28 -62 36 -157 53
-61 10 -120 18 -131 18 -11 -1 -47 -7 -80 -14z m-15455 -565 c41 -4 120 -13
175 -20 55 -6 124 -22 155 -34 30 -13 84 -33 120 -46 36 -13 83 -36 105 -50
22 -15 86 -55 143 -90 62 -38 118 -80 140 -107 20 -24 60 -60 89 -80 28 -19
73 -63 100 -96 26 -34 58 -77 70 -97 13 -19 30 -57 39 -85 9 -27 31 -80 50
-117 21 -41 39 -98 48 -150 8 -45 20 -144 27 -218 7 -77 9 -179 5 -240 -3 -58
-11 -181 -16 -275 -5 -93 -15 -210 -21 -260 -6 -54 -28 -142 -55 -220 -24 -72
-50 -177 -59 -233 -9 -60 -31 -146 -54 -210 -22 -59 -49 -145 -60 -191 -12
-47 -32 -103 -45 -125 -13 -23 -38 -88 -56 -146 -18 -58 -50 -134 -71 -170
-20 -36 -46 -78 -56 -95 -14 -24 -27 -31 -57 -33 -30 -3 -49 4 -90 31 -28 18
-61 39 -73 46 -13 6 -59 16 -103 22 -44 5 -100 18 -125 29 -25 11 -73 27 -105
35 -33 8 -120 40 -195 70 -75 29 -176 63 -223 75 -48 11 -134 36 -192 54 -58
19 -139 43 -182 55 -42 11 -93 21 -113 21 -20 0 -91 11 -157 25 -66 14 -154
25 -194 25 -41 0 -142 -11 -226 -25 -84 -14 -166 -22 -183 -19 -16 3 -56 22
-87 41 -32 19 -73 52 -92 74 -18 22 -47 66 -64 97 -17 32 -41 94 -52 137 -12
44 -31 94 -41 111 -13 21 -25 79 -38 175 -11 79 -24 203 -31 274 -6 72 -20
191 -31 265 -15 107 -18 150 -10 205 5 39 9 102 9 141 0 38 14 153 32 254 17
101 37 198 44 215 8 18 32 58 54 91 22 32 51 82 66 111 14 28 49 79 78 113 29
34 70 85 91 114 24 31 56 60 85 75 26 13 70 45 98 70 33 30 69 52 105 63 30
10 81 37 113 62 40 29 84 51 135 67 42 12 105 37 141 56 45 23 89 36 145 44
44 6 99 19 123 29 24 11 93 28 155 39 62 11 126 22 142 24 17 2 68 4 115 5 47
0 119 -3 160 -8z m9425 -299 c22 -10 55 -30 73 -46 18 -15 44 -48 56 -74 13
-25 29 -66 36 -90 6 -24 23 -61 37 -82 18 -27 28 -61 35 -116 5 -43 22 -152
38 -243 16 -91 36 -229 45 -307 8 -79 20 -337 26 -580 6 -241 9 -492 6 -558
-4 -83 -15 -157 -36 -240 -16 -66 -37 -181 -45 -255 -9 -74 -21 -171 -27 -214
-6 -44 -23 -111 -39 -150 -15 -39 -33 -95 -39 -124 -6 -28 -15 -92 -21 -142
-6 -50 -27 -144 -50 -214 -21 -68 -42 -157 -46 -198 -4 -44 -2 -95 5 -127 6
-28 24 -80 39 -114 16 -34 35 -78 42 -97 8 -19 24 -51 36 -71 12 -20 36 -47
53 -61 17 -15 53 -31 81 -37 28 -6 86 -11 128 -11 53 0 90 6 118 19 23 10 51
32 63 49 12 17 49 44 83 61 34 17 75 31 92 31 17 0 46 -9 64 -20 19 -12 40
-37 49 -58 9 -20 26 -91 40 -156 17 -87 33 -137 58 -181 18 -34 44 -87 56
-119 12 -33 42 -82 68 -111 25 -29 78 -90 116 -135 39 -45 82 -94 96 -109 14
-14 52 -48 83 -74 31 -27 70 -56 87 -64 17 -8 58 -22 92 -29 34 -8 84 -30 112
-49 27 -18 81 -43 119 -54 39 -12 97 -21 135 -21 36 0 77 -6 91 -13 13 -7 35
-28 47 -46 14 -21 23 -49 23 -74 0 -29 -11 -57 -41 -106 -23 -36 -57 -85 -76
-109 -19 -23 -59 -58 -88 -77 -30 -19 -61 -45 -70 -59 -14 -22 -15 -46 -7
-218 6 -132 14 -204 25 -229 10 -25 37 -52 88 -88 40 -28 91 -56 113 -62 21
-6 49 -8 63 -4 13 3 51 26 84 52 33 26 73 69 90 97 17 27 56 80 87 118 30 38
67 75 81 82 14 8 40 17 57 20 17 4 42 2 57 -3 14 -6 34 -25 43 -43 13 -25 15
-48 11 -110 -4 -43 -17 -110 -31 -150 -13 -40 -32 -110 -40 -155 -9 -45 -34
-140 -56 -210 -21 -70 -45 -155 -54 -188 -8 -33 -20 -123 -26 -200 -7 -83 -9
-205 -6 -300 4 -88 2 -304 -3 -480 -5 -208 -15 -357 -25 -425 -10 -58 -26
-159 -37 -226 -11 -66 -29 -150 -40 -185 -14 -43 -19 -77 -14 -104 3 -22 13
-85 21 -140 9 -55 18 -140 21 -190 4 -67 0 -114 -15 -188 -11 -54 -29 -112
-39 -130 -13 -22 -46 -46 -108 -79 -52 -27 -121 -54 -163 -64 -49 -11 -91 -14
-124 -10 -28 4 -63 13 -77 21 -14 7 -39 27 -56 45 -16 17 -47 41 -68 53 -21
12 -46 35 -56 52 -10 16 -26 55 -36 85 -10 30 -28 69 -40 85 -12 17 -29 44
-38 60 -8 17 -23 60 -32 95 -9 36 -32 99 -50 140 -19 43 -40 116 -50 170 -9
52 -21 131 -26 175 -5 44 -19 141 -29 215 -11 74 -28 203 -37 285 -12 111 -16
235 -16 480 0 210 6 398 16 517 9 102 23 221 31 265 8 43 21 173 28 288 7 116
13 294 13 397 0 180 -1 187 -23 218 -13 17 -37 64 -53 103 -17 40 -41 84 -56
99 -14 14 -52 36 -84 48 -44 17 -70 21 -102 16 -23 -4 -57 -16 -76 -27 -19
-11 -40 -37 -51 -62 -10 -23 -21 -66 -25 -94 -4 -33 -17 -67 -34 -90 -15 -21
-51 -63 -79 -95 -29 -31 -62 -78 -74 -105 -16 -35 -25 -88 -34 -196 -9 -97
-22 -179 -39 -236 -14 -47 -38 -166 -55 -263 -20 -124 -38 -198 -58 -245 -16
-37 -37 -91 -46 -120 -10 -29 -36 -81 -59 -116 -26 -39 -52 -97 -66 -147 -20
-69 -32 -91 -76 -139 -28 -31 -62 -72 -75 -91 -13 -19 -45 -59 -71 -87 -26
-29 -65 -81 -87 -115 -22 -35 -60 -88 -84 -117 -23 -30 -82 -95 -129 -143 -83
-86 -86 -88 -133 -88 -36 0 -52 5 -71 25 -15 14 -25 36 -25 52 0 15 11 64 25
108 14 44 32 108 40 143 8 35 15 96 15 135 0 40 11 126 25 192 13 66 34 198
45 294 15 119 20 197 15 245 -4 39 -15 109 -26 155 -11 47 -39 126 -63 176
-27 57 -55 101 -77 119 -19 16 -53 38 -77 48 -24 11 -67 22 -96 25 -39 4 -63
1 -90 -12 -20 -10 -45 -30 -56 -45 -11 -15 -35 -68 -54 -117 -19 -50 -48 -118
-66 -152 -19 -39 -42 -114 -60 -195 -16 -73 -43 -166 -59 -208 -17 -42 -41
-118 -52 -170 -12 -51 -34 -120 -48 -153 -15 -33 -33 -82 -40 -110 -7 -27 -25
-72 -40 -100 -16 -27 -42 -84 -60 -125 -17 -42 -44 -91 -59 -109 -20 -24 -36
-33 -57 -33 -19 0 -37 9 -51 26 -13 14 -28 43 -33 64 -6 20 -11 60 -11 87 0
28 -5 70 -11 95 -6 25 -21 110 -34 190 -13 80 -26 172 -30 205 -4 33 -11 87
-16 119 -6 33 -28 94 -49 137 -22 42 -47 110 -56 150 -13 57 -23 79 -49 103
-18 17 -44 50 -59 73 -14 23 -55 62 -90 88 -36 25 -101 62 -145 81 -51 22 -95
34 -123 34 -36 0 -56 -8 -100 -40 -34 -24 -72 -64 -97 -102 -23 -35 -56 -81
-74 -104 -21 -26 -38 -61 -46 -100 -7 -32 -28 -86 -46 -119 -24 -44 -37 -86
-48 -156 -8 -52 -27 -124 -42 -160 -15 -35 -33 -80 -40 -99 -7 -19 -17 -83
-23 -141 -9 -96 -14 -114 -50 -180 -23 -41 -53 -117 -67 -171 -15 -53 -35
-110 -46 -127 -10 -16 -33 -38 -51 -47 -18 -9 -49 -17 -70 -18 -26 0 -44 6
-57 19 -11 11 -29 54 -41 95 -12 41 -35 94 -51 117 -17 24 -38 62 -49 85 -10
24 -33 57 -50 73 -18 17 -43 50 -57 75 -15 25 -45 65 -68 90 -23 25 -53 61
-66 80 -12 19 -44 59 -69 88 -25 30 -92 89 -150 132 -58 42 -118 84 -135 92
-16 9 -54 21 -84 28 -32 8 -81 10 -120 7 -36 -3 -97 -16 -136 -28 -55 -17 -80
-31 -116 -68 -28 -28 -53 -65 -64 -96 -9 -27 -29 -79 -43 -115 -16 -42 -27
-97 -32 -156 -4 -50 -15 -114 -24 -142 -10 -29 -29 -61 -43 -72 -14 -11 -40
-20 -57 -20 -20 0 -45 11 -68 30 -20 17 -53 37 -72 45 -22 10 -66 15 -118 14
-46 0 -97 -6 -115 -12 -18 -7 -63 -37 -100 -69 -37 -31 -104 -86 -148 -122
-44 -36 -111 -89 -148 -118 -64 -50 -71 -60 -127 -174 -45 -92 -68 -128 -97
-150 -21 -16 -74 -65 -118 -109 -45 -44 -96 -102 -114 -129 -19 -27 -49 -84
-67 -127 -17 -44 -48 -100 -66 -126 -19 -27 -60 -94 -91 -149 -31 -56 -73
-148 -93 -205 -20 -57 -43 -116 -51 -132 -8 -16 -20 -75 -28 -132 -7 -57 -18
-112 -24 -124 -6 -11 -20 -25 -31 -31 -10 -5 -34 -10 -53 -10 -19 0 -53 7 -77
15 -23 8 -55 26 -71 39 -15 13 -57 33 -91 45 -35 11 -94 25 -132 31 -39 6 -99
24 -135 40 -37 15 -91 33 -121 39 -30 5 -91 13 -135 16 -44 3 -174 18 -290 33
-194 24 -238 26 -590 26 -324 0 -389 -2 -440 -16 -37 -11 -116 -19 -205 -22
-80 -3 -194 -10 -254 -15 -61 -6 -180 -11 -265 -12 -86 -1 -208 -6 -271 -10
-75 -5 -155 -19 -230 -39 -110 -30 -127 -31 -409 -40 -162 -5 -299 -6 -304 -3
-6 4 -77 10 -157 13 l-145 6 -55 37 c-30 20 -67 46 -82 57 -19 14 -29 33 -33
63 -4 24 -2 70 4 103 6 32 33 104 60 159 27 55 56 124 66 153 9 30 38 81 64
115 26 34 68 97 94 139 26 42 56 97 68 122 11 25 50 83 87 128 37 46 124 157
192 246 69 90 136 180 150 200 14 19 38 40 54 45 19 6 41 6 67 -2 21 -6 53
-26 72 -44 24 -23 40 -52 55 -102 12 -38 32 -84 44 -101 13 -17 42 -56 65 -85
23 -30 68 -85 100 -122 47 -55 72 -75 133 -103 41 -20 91 -51 111 -69 21 -19
53 -36 71 -39 18 -3 84 -13 146 -21 93 -13 126 -14 190 -5 42 7 97 20 123 29
25 10 73 37 107 60 34 23 69 53 78 66 9 13 18 42 21 64 4 28 1 48 -10 65 -9
13 -33 30 -53 36 -24 8 -63 10 -113 6 -42 -4 -112 -9 -156 -12 -65 -5 -100 -1
-190 20 -60 15 -127 31 -149 37 -22 6 -60 30 -87 56 -28 26 -59 69 -74 101
-14 31 -44 79 -65 108 -22 28 -49 77 -60 108 -11 32 -35 90 -55 128 -19 39
-35 85 -35 102 0 17 11 54 24 81 13 28 48 80 77 117 30 37 132 140 227 230 95
90 196 180 225 201 29 21 68 53 87 71 19 19 46 39 58 46 13 6 40 26 60 44 21
18 60 45 87 61 28 16 73 50 100 75 28 26 82 68 122 93 40 25 87 54 105 63 18
9 49 29 68 44 19 15 66 37 104 50 43 14 88 39 122 67 30 24 66 48 81 54 14 5
66 18 114 29 49 11 126 35 171 54 47 19 118 39 163 46 56 8 122 8 216 2 109
-7 146 -14 184 -32 36 -18 52 -32 66 -64 9 -23 23 -71 29 -109 10 -56 9 -87
-4 -180 -9 -61 -21 -137 -27 -167 -6 -30 -14 -86 -19 -125 -5 -38 -16 -87 -24
-107 -9 -20 -34 -99 -56 -174 -26 -88 -40 -157 -40 -193 0 -46 6 -66 34 -113
19 -31 58 -86 86 -123 29 -36 60 -70 70 -75 10 -6 39 -10 63 -10 24 0 59 5 77
11 27 10 38 24 65 83 17 39 40 94 49 122 9 28 26 102 37 165 11 63 25 202 31
309 7 107 12 245 13 305 0 61 -6 156 -12 212 -7 56 -20 129 -29 162 -14 51
-15 65 -4 91 8 19 27 38 45 47 30 14 40 14 126 -6 52 -11 119 -28 149 -36 39
-11 121 -18 280 -22 163 -4 237 -2 270 7 35 9 60 28 110 80 36 37 80 75 98 84
19 10 54 33 79 52 24 19 51 34 60 34 8 0 35 20 60 45 24 25 62 55 85 66 22 11
73 50 112 86 39 36 97 91 129 122 32 31 92 93 133 138 42 45 98 96 125 114 30
19 58 47 69 70 11 20 44 59 74 84 30 26 66 69 81 96 14 27 39 59 54 70 16 11
39 40 51 62 13 23 39 58 60 77 26 24 42 52 53 90 10 32 33 75 57 103 22 27 44
65 50 85 5 21 16 63 24 95 8 33 26 76 41 97 14 21 32 58 40 82 7 25 16 80 19
124 3 43 11 141 18 216 10 117 9 162 -5 295 -9 87 -21 205 -26 263 -8 80 -19
128 -45 195 -19 50 -40 118 -46 153 -8 36 -10 94 -7 136 3 42 15 95 27 125 15
34 36 61 63 81 23 17 51 30 64 30 12 0 29 -10 37 -22 8 -13 19 -43 25 -68 5
-25 15 -101 21 -170 6 -69 18 -165 26 -215 7 -49 14 -135 14 -190 1 -55 5
-146 10 -201 7 -76 5 -128 -6 -210 -8 -60 -17 -137 -21 -172 -3 -36 -1 -99 7
-145 11 -71 10 -97 -4 -185 -11 -73 -16 -169 -16 -333 0 -199 3 -242 20 -311
12 -44 34 -114 51 -156 17 -41 39 -88 51 -104 11 -16 43 -42 71 -58 39 -22 65
-30 102 -30 32 0 61 7 82 20 18 10 42 39 54 62 19 35 24 66 28 164 6 118 7
122 38 157 18 20 34 51 37 69 3 18 13 76 22 128 10 56 30 126 50 172 19 42 47
127 63 190 16 62 41 143 55 180 14 37 37 127 51 200 15 73 35 162 45 198 10
36 24 103 30 150 6 47 22 142 36 211 13 69 29 173 34 231 5 58 18 142 29 185
11 44 27 112 36 151 8 40 20 145 25 234 6 90 17 210 25 268 8 58 23 126 35
152 17 38 23 88 35 275 9 125 25 282 36 348 11 66 24 147 29 180 4 33 17 88
29 122 11 34 21 87 21 116 0 30 7 94 15 142 10 56 27 110 50 153 19 37 45 108
58 158 14 50 31 102 37 115 7 13 42 61 76 105 36 46 76 86 91 92 16 6 38 14
51 17 13 4 36 2 51 -4 20 -9 38 -36 78 -119 42 -88 55 -130 73 -227 11 -66 34
-183 50 -260 16 -77 36 -192 44 -255 9 -63 21 -261 27 -440 7 -199 9 -478 5
-720 -4 -217 -11 -457 -16 -533 -5 -76 -14 -175 -21 -220 -6 -45 -20 -129 -30
-187 -11 -58 -26 -159 -34 -225 -7 -66 -19 -183 -25 -260 -6 -77 -18 -165 -26
-196 -8 -31 -14 -87 -14 -124 0 -43 9 -97 25 -150 14 -46 36 -98 48 -116 12
-18 40 -45 62 -60 22 -15 65 -40 95 -55 30 -15 70 -28 89 -28 23 0 39 7 52 23
11 13 35 76 56 140 30 95 38 139 44 241 4 69 12 143 18 165 6 22 11 58 11 80
0 22 9 78 19 125 10 47 30 130 44 185 14 55 41 201 61 325 20 124 49 272 66
330 16 58 38 173 49 256 13 101 28 171 44 210 14 33 29 75 36 94 6 19 17 84
26 144 8 61 30 153 50 210 19 55 46 156 60 223 14 67 39 155 56 194 17 40 42
122 56 183 16 75 34 125 53 155 16 24 32 64 35 90 3 25 13 78 21 117 8 40 32
107 53 150 21 44 50 122 65 174 15 52 39 112 54 134 15 21 37 55 50 75 12 20
27 53 34 74 6 21 23 48 37 60 14 12 88 84 165 161 128 128 146 142 230 181 50
24 111 50 136 59 25 8 68 15 95 15 28 0 68 -8 90 -18z m2291 -813 c4 -18 7
-77 6 -130 -1 -53 -11 -143 -22 -200 -11 -57 -20 -124 -20 -149 0 -28 -16 -89
-43 -165 -24 -65 -56 -142 -70 -170 -14 -29 -43 -107 -63 -175 -27 -93 -51
-150 -97 -229 -36 -61 -90 -134 -128 -175 -37 -38 -85 -101 -109 -140 -23 -38
-52 -81 -65 -95 -12 -14 -39 -51 -59 -82 -28 -45 -41 -58 -60 -58 -19 0 -32
11 -52 46 l-28 47 17 66 c10 36 22 92 27 124 7 42 18 68 39 93 17 18 34 51 39
71 5 21 14 63 20 93 5 31 24 79 42 107 18 28 43 91 57 140 13 48 42 120 63
158 21 39 50 115 65 170 15 55 40 121 56 146 16 25 40 78 54 118 13 39 40 97
59 129 19 31 40 77 46 102 7 25 21 62 31 82 11 21 29 43 42 49 12 7 42 27 66
45 34 26 47 31 61 24 10 -5 22 -24 26 -42z m-6673 -921 c26 -12 38 -28 66 -93
19 -43 45 -98 58 -122 15 -27 23 -55 21 -75 -2 -26 -8 -33 -30 -35 -14 -2 -44
6 -66 17 -22 11 -51 34 -65 51 -15 17 -40 73 -57 125 -23 73 -28 100 -20 120
7 18 17 25 35 25 14 0 40 -6 58 -13z m-417 -500 c11 -6 46 -29 77 -50 31 -20
61 -46 67 -57 6 -12 18 -70 26 -131 8 -61 11 -136 8 -167 -3 -31 -10 -69 -16
-84 -6 -17 -28 -36 -64 -54 -29 -15 -64 -39 -78 -54 -13 -16 -52 -43 -86 -61
-33 -18 -70 -44 -80 -59 -11 -15 -32 -32 -47 -38 -16 -6 -46 -16 -68 -21 -22
-6 -70 -33 -108 -60 -37 -27 -87 -56 -111 -64 -25 -9 -69 -33 -98 -55 -29 -23
-73 -49 -98 -60 -25 -11 -52 -27 -60 -37 -8 -10 -40 -29 -70 -42 -30 -14 -83
-43 -118 -65 -44 -29 -77 -42 -111 -46 -40 -3 -52 0 -76 21 l-29 24 18 128 c9
71 24 149 33 174 8 25 33 66 54 91 22 25 55 65 74 90 19 25 53 71 75 103 22
31 45 57 50 57 5 0 29 26 52 58 24 32 63 76 88 99 25 22 64 50 87 62 27 13 50
35 65 62 14 26 38 49 63 61 22 12 59 36 83 54 31 23 66 38 120 50 42 9 108 32
147 51 38 18 79 33 90 33 11 0 29 -6 41 -13z m-5167 -677 c41 -11 84 -20 95
-20 12 0 87 -16 168 -34 81 -19 177 -48 215 -65 37 -16 127 -45 200 -64 111
-29 138 -40 174 -71 25 -21 65 -43 94 -51 27 -8 70 -19 94 -25 24 -6 54 -23
67 -37 13 -14 26 -41 30 -60 4 -19 4 -60 1 -91 -3 -32 -13 -79 -22 -107 -9
-27 -44 -106 -77 -173 -33 -68 -68 -148 -79 -179 -10 -30 -34 -80 -53 -111
-19 -31 -40 -77 -46 -102 -7 -25 -21 -61 -31 -80 -11 -19 -31 -50 -44 -68 -13
-18 -31 -65 -40 -104 -9 -39 -22 -83 -30 -98 -8 -15 -33 -42 -55 -60 -22 -18
-61 -38 -87 -46 -25 -8 -88 -14 -139 -14 -51 0 -142 7 -201 16 -67 10 -130 14
-166 9 -47 -5 -71 -1 -131 19 -45 16 -136 34 -232 46 -139 17 -168 24 -229 55
-38 19 -106 47 -151 63 -44 16 -107 47 -140 69 -32 22 -74 48 -93 58 -18 9
-59 37 -90 62 -31 25 -83 75 -117 113 -41 46 -69 89 -88 135 -15 37 -44 93
-65 124 -20 31 -53 83 -71 116 -29 51 -34 69 -33 120 0 42 8 77 27 118 14 32
26 63 26 69 0 6 12 37 26 69 21 47 37 66 79 93 29 20 72 52 96 72 24 20 64 45
87 55 24 11 63 32 85 48 30 21 95 44 232 82 104 28 221 58 260 65 48 9 119 12
225 9 113 -3 175 -10 229 -25z m5466 -314 c18 -8 40 -27 48 -43 8 -15 20 -55
25 -88 6 -33 18 -152 27 -265 9 -113 20 -232 25 -265 6 -48 4 -71 -11 -114
-10 -29 -21 -81 -24 -115 -4 -33 -11 -83 -17 -111 -6 -27 -40 -105 -75 -173
-36 -67 -81 -141 -100 -164 -19 -23 -46 -64 -60 -91 -13 -27 -48 -82 -76 -121
-28 -39 -83 -106 -122 -149 -38 -43 -94 -96 -123 -118 -29 -22 -68 -47 -87
-55 -19 -8 -45 -14 -58 -14 -13 0 -49 13 -78 29 -30 16 -86 38 -124 49 -39 11
-92 23 -119 26 -30 4 -67 18 -94 36 -25 17 -64 35 -86 41 -23 6 -63 25 -91 42
-47 30 -56 32 -160 34 -109 3 -110 3 -164 40 -37 26 -57 48 -62 67 -5 16 -6
107 -4 202 3 96 11 227 19 293 9 66 18 132 22 148 4 15 15 44 25 63 9 19 36
54 59 78 22 23 69 56 103 73 34 18 78 45 97 60 19 16 70 41 114 55 44 15 100
40 124 55 25 16 77 40 116 55 39 15 91 41 116 58 25 17 79 44 120 61 41 17
129 58 195 90 66 33 138 70 160 84 22 14 74 51 115 83 42 31 87 61 100 67 14
5 40 10 58 10 18 1 48 -5 67 -13z m-3686 -381 c22 -20 66 -45 101 -57 34 -11
82 -34 108 -52 26 -17 70 -44 97 -60 28 -16 73 -48 100 -71 28 -23 75 -60 105
-82 31 -22 80 -53 110 -68 30 -15 63 -34 73 -43 9 -8 17 -25 17 -36 0 -12 -6
-28 -13 -36 -7 -9 -28 -27 -47 -40 -19 -13 -52 -38 -72 -56 -20 -18 -54 -37
-75 -43 -21 -5 -84 -15 -141 -21 -56 -6 -121 -18 -144 -26 -23 -8 -69 -21
-102 -30 -34 -9 -86 -26 -116 -39 -39 -16 -85 -25 -160 -29 -61 -4 -134 -16
-174 -28 -67 -21 -69 -21 -102 -3 -19 10 -48 39 -64 63 -17 25 -30 53 -30 62
0 9 23 63 52 121 28 57 66 125 84 151 17 26 37 71 44 100 7 29 18 64 25 78 7
14 22 34 34 44 11 10 35 56 52 102 17 46 39 89 48 97 9 8 30 19 46 25 17 6 47
11 67 11 30 1 46 -7 77 -34z m1104 -829 c18 -7 46 -29 64 -49 19 -22 35 -55
42 -87 6 -28 11 -61 11 -73 0 -12 -9 -69 -21 -127 -16 -82 -20 -141 -20 -271
1 -160 2 -171 46 -355 25 -104 48 -212 51 -241 6 -47 4 -54 -20 -78 -23 -23
-33 -26 -69 -21 -23 3 -114 10 -202 16 -143 10 -172 9 -270 -8 -60 -11 -189
-45 -286 -77 -144 -46 -185 -64 -223 -95 -26 -22 -75 -48 -112 -60 -35 -12
-77 -32 -92 -44 -15 -13 -53 -40 -86 -62 -32 -21 -77 -51 -99 -66 -22 -15 -75
-39 -117 -53 -43 -14 -105 -45 -140 -70 -35 -25 -72 -47 -82 -51 -10 -3 -32
-26 -50 -52 -17 -26 -79 -100 -137 -166 -89 -100 -116 -123 -166 -146 -33 -15
-91 -48 -129 -74 -39 -25 -84 -49 -102 -52 -18 -3 -49 -1 -69 6 -23 8 -41 23
-52 43 -12 25 -15 50 -10 127 3 52 15 131 27 175 11 44 28 132 36 195 8 63 23
151 33 195 10 44 22 98 26 120 3 22 17 65 30 95 12 30 36 114 53 185 17 72 34
145 38 164 3 19 22 64 40 100 19 38 42 107 54 160 12 57 30 110 45 133 14 21
36 62 49 92 13 30 34 59 45 66 12 6 85 24 164 40 78 16 176 41 217 55 47 16
116 30 183 36 60 5 129 14 155 20 26 5 81 25 122 44 41 18 113 41 160 50 47 9
105 20 130 26 25 6 79 27 120 48 41 21 116 50 165 64 50 14 115 30 145 36 30
7 71 21 90 33 19 12 67 31 105 44 39 13 71 23 73 24 1 0 17 -6 35 -14z m627
-907 c30 -11 61 -26 69 -32 8 -7 32 -50 53 -96 21 -46 43 -103 49 -127 6 -24
8 -55 5 -69 -4 -17 -19 -31 -41 -41 -19 -8 -50 -14 -69 -14 -18 0 -58 13 -87
28 -30 15 -63 42 -75 60 -13 18 -26 64 -34 111 -7 44 -9 96 -6 115 4 19 16 46
27 60 11 14 28 26 37 26 9 0 42 -9 72 -21z m758 -115 c16 -11 22 -25 22 -54 0
-31 -5 -43 -25 -56 -23 -15 -27 -15 -50 0 -16 10 -25 26 -25 42 0 14 5 35 11
47 7 12 17 25 23 29 6 4 13 8 16 8 3 0 16 -7 28 -16z m13349 -1990 c24 -24 25
-30 20 -99 -3 -48 -19 -115 -46 -192 -22 -65 -50 -172 -61 -238 -13 -79 -39
-176 -75 -280 -31 -88 -67 -180 -81 -205 -14 -25 -51 -78 -82 -117 -31 -40
-74 -94 -95 -120 -21 -26 -59 -77 -85 -113 -33 -45 -72 -81 -132 -123 -47 -32
-123 -83 -170 -114 -47 -31 -119 -72 -160 -91 -41 -19 -115 -43 -165 -53 -49
-11 -105 -22 -123 -26 -26 -4 -38 -1 -57 17 -14 13 -32 43 -41 67 -14 36 -16
64 -11 156 4 62 11 136 17 166 5 29 28 92 49 140 22 48 49 121 61 162 12 41
37 101 55 134 19 33 45 92 60 130 14 39 38 88 54 110 16 22 36 56 46 75 10 19
32 53 50 75 18 22 45 65 60 95 15 30 49 76 74 101 25 26 55 62 66 80 18 29 31
37 100 57 44 12 95 33 115 45 19 13 49 28 65 35 17 6 55 16 86 22 34 6 85 28
125 53 38 23 92 49 119 59 28 9 69 17 93 18 33 0 49 -6 69 -26z m-2866 -711
c15 -14 22 -39 26 -81 l6 -62 -41 -37 c-22 -21 -60 -54 -84 -73 -25 -19 -62
-59 -82 -88 -29 -41 -53 -60 -105 -86 -37 -19 -73 -41 -80 -50 -8 -9 -60 -50
-116 -91 -80 -58 -117 -79 -167 -91 -45 -12 -89 -15 -153 -12 -63 4 -106 12
-143 28 -29 13 -59 32 -67 44 -8 11 -15 42 -15 68 0 35 6 53 23 72 12 14 47
38 77 54 30 16 96 52 147 79 50 28 106 62 124 77 18 15 68 45 111 67 44 22 99
58 123 80 29 26 74 53 132 75 48 19 104 39 123 44 19 5 59 8 88 6 37 -2 59 -9
73 -23z m-9097 -54 c20 -17 40 -47 46 -67 5 -20 10 -54 10 -74 0 -20 7 -67 16
-105 10 -42 14 -89 11 -122 -3 -30 0 -142 8 -250 8 -108 19 -306 25 -441 9
-178 9 -287 1 -398 -9 -119 -17 -170 -36 -225 -14 -40 -37 -112 -51 -160 -13
-49 -31 -98 -39 -110 -8 -12 -29 -34 -48 -48 -18 -15 -47 -53 -64 -85 -19 -35
-62 -89 -106 -132 -41 -39 -80 -72 -86 -72 -6 0 -61 -25 -123 -55 -62 -30
-156 -66 -208 -80 -52 -14 -123 -28 -157 -31 -34 -4 -106 -1 -160 6 -54 7
-112 18 -130 26 -21 8 -39 27 -54 56 -12 24 -38 59 -59 79 -29 29 -39 48 -50
100 -7 35 -24 100 -38 144 -19 63 -25 111 -29 225 -5 129 -3 158 20 260 13 63
35 171 48 240 20 103 30 133 58 174 18 27 51 85 72 130 21 44 58 110 80 146
23 36 57 83 76 105 18 22 46 64 61 95 17 35 61 89 120 150 52 52 130 132 175
178 45 46 106 105 136 130 30 26 86 71 125 101 39 30 89 65 111 79 22 14 65
34 95 43 30 10 67 18 82 18 17 1 41 -11 62 -30z m4639 -1717 c1 -45 -3 -75
-10 -83 -7 -7 -16 -9 -20 -5 -4 4 -7 31 -6 62 1 30 5 68 8 85 5 20 10 28 17
21 5 -5 10 -41 11 -80z"/>
</g>
</svg>
